# xmcd
#
# Track frame offsets: 
#        150
#        15667
#        38803
#        57636
#        78379
#        98490
#        118954
#        144427
#        162988
#        184118
#        210482
#        234337
#        255951
#
# Disc length: 3708 seconds
#
# Revision: 0
# Processed by: cddbd v1.5.2PL0 Copyright (c) Steve Scherf et al.
# Submitted via: ExactAudioCopy v1.0b3
#
DISCID=a50e7a0d
DTITLE=群星 - DTS ES 正品 测试王CD1
DYEAR=2008
DGENRE=DTS ES
TTITLE0=月圆花好
TTITLE1=相逢是首歌
TTITLE2=家乡
TTITLE3=真的好想你
TTITLE4=乡间的小路
TTITLE5=白月光
TTITLE6=黄昏
TTITLE7=爱我别走
TTITLE8=一剪梅
TTITLE9=亲爱的你怎么不在我身边
TTITLE10=天涯
TTITLE11=天堂
TTITLE12=东风破
EXTD=
EXTT0=
EXTT1=
EXTT2=
EXTT3=
EXTT4=
EXTT5=
EXTT6=
EXTT7=
EXTT8=
EXTT9=
EXTT10=
EXTT11=
EXTT12=
PLAYORDER=
